<svg width="12" height="12" viewBox="0 0 12 12" fill="none" xmlns="http://www.w3.org/2000/svg">
<path fill-rule="evenodd" clip-rule="evenodd" d="M9.29075 10.3514C9.58365 10.6443 10.0586 10.6443 10.3515 10.3514C10.6443 10.0585 10.6443 9.58363 10.3515 9.29073L7.34625 6.28552L10.3514 3.28034C10.6443 2.98745 10.6443 2.51258 10.3514 2.21969C10.0586 1.92679 9.58365 1.92679 9.29075 2.21969L6.28555 5.22493L3.28034 2.21968C2.98744 1.92678 2.51258 1.92678 2.21969 2.21968C1.92679 2.51257 1.92679 2.98743 2.21969 3.28033L5.22485 6.28552L2.21968 9.29073C1.92678 9.58363 1.92678 10.0585 2.21968 10.3514C2.51257 10.6443 2.98743 10.6443 3.28033 10.3514L6.28555 7.34622L9.29075 10.3514Z" fill="#F1F0EB"/>
</svg>
