<svg width="24" height="24" viewBox="0 0 24 24" fill="none" xmlns="http://www.w3.org/2000/svg">
<path id="Glyph" fill-rule="evenodd" clip-rule="evenodd" d="M0 12C0 18.6274 5.37258 24 12 24C18.6274 24 24 18.6274 24 12C24 5.37258 18.6274 0 12 0C5.37258 0 0 5.37258 0 12ZM15.9193 8C16.3098 7.60948 16.943 7.60948 17.3335 8C17.724 8.39052 17.724 9.02369 17.3335 9.41421L10.6668 16.0809L6.66682 12.0809C6.2763 11.6904 6.2763 11.0572 6.66682 10.6667C7.05734 10.2761 7.69051 10.2761 8.08103 10.6667L10.6668 13.2525L15.9193 8Z" fill="#2688EB"/>
</svg>
