<svg width="24" height="24" viewBox="0 0 24 24" fill="none" xmlns="http://www.w3.org/2000/svg">
<path d="M11.8031 16.6329L16.5277 19.6327C17.1371 20.017 17.887 19.4452 17.7089 18.7421L16.3403 13.3612C16.3032 13.2121 16.3091 13.0555 16.3572 12.9096C16.4053 12.7636 16.4937 12.6342 16.6121 12.5363L20.8493 9.00218C21.4024 8.54283 21.1211 7.61478 20.3993 7.56791L14.8685 7.21168C14.7176 7.2029 14.5725 7.15035 14.451 7.06045C14.3294 6.97055 14.2367 6.8472 14.1842 6.70547L12.1218 1.5121C12.0672 1.36202 11.9678 1.23237 11.837 1.14076C11.7062 1.04914 11.5503 1 11.3906 1C11.2309 1 11.0751 1.04914 10.9443 1.14076C10.8135 1.23237 10.714 1.36202 10.6594 1.5121L8.59708 6.70547C8.54452 6.8472 8.45181 6.97055 8.33028 7.06045C8.20875 7.15035 8.06367 7.2029 7.91276 7.21168L2.38192 7.56791C1.6601 7.61478 1.37887 8.54283 1.93196 9.00218L6.16914 12.5363C6.28757 12.6342 6.37592 12.7636 6.42402 12.9096C6.47212 13.0555 6.478 13.2121 6.44099 13.3612L5.17546 18.3484C4.95986 19.1921 5.85979 19.8764 6.58161 19.417L10.9782 16.6329C11.1014 16.5545 11.2445 16.5128 11.3906 16.5128C11.5367 16.5128 11.6798 16.5545 11.8031 16.6329V16.6329Z" stroke="#2A2630" stroke-width="1.49989" stroke-linecap="round" stroke-linejoin="round"/>
</svg>
