<svg width="24" height="24" viewBox="0 0 24 24" fill="none" xmlns="http://www.w3.org/2000/svg">
<path d="M22.4256 9.13174C22.3318 8.83641 22.1509 8.57633 21.9066 8.38562C21.6624 8.1949 21.3662 8.08244 21.0569 8.06299L15.4881 7.67861L13.4256 2.47549C13.313 2.18899 13.117 1.9429 12.8629 1.76907C12.6089 1.59524 12.3085 1.50167 12.0006 1.50049V1.50049C11.6928 1.50167 11.3924 1.59524 11.1384 1.76907C10.8843 1.9429 10.6883 2.18899 10.5756 2.47549L8.47564 7.70674L2.94439 8.06299C2.63549 8.0837 2.33991 8.19663 2.09589 8.38717C1.85188 8.5777 1.67064 8.83708 1.57564 9.13174C1.47809 9.43092 1.47239 9.75246 1.55928 10.0549C1.64617 10.3574 1.82167 10.6268 2.06314 10.8286L6.31939 14.4286L5.05377 19.4067C4.9662 19.7435 4.98196 20.0988 5.099 20.4265C5.21603 20.7542 5.42893 21.0391 5.71002 21.2442C5.98286 21.4401 6.30793 21.55 6.64362 21.56C6.97931 21.5701 7.31036 21.4797 7.59439 21.3005L11.9913 18.5161H12.01L16.7444 21.5067C16.9873 21.6646 17.2704 21.7492 17.56 21.7505C17.7965 21.7486 18.0294 21.6926 18.2408 21.5866C18.4523 21.4807 18.6366 21.3277 18.7797 21.1393C18.9227 20.951 19.0207 20.7324 19.066 20.5003C19.1114 20.2682 19.1029 20.0288 19.0413 19.8005L17.7006 14.3536L21.9381 10.8286C22.1796 10.6268 22.3551 10.3574 22.442 10.0549C22.5289 9.75246 22.5232 9.43092 22.4256 9.13174Z" fill="#FE7870"/>
</svg>
