<svg width="20" height="21" viewBox="0 0 20 21" fill="none" xmlns="http://www.w3.org/2000/svg">
<g clip-path="url(#clip0_469_26902)">
<path fill-rule="evenodd" clip-rule="evenodd" d="M9.16667 16.3333C5.48477 16.3333 2.5 13.3486 2.5 9.66667C2.5 5.98477 5.48477 3 9.16667 3C12.8486 3 15.8333 5.98477 15.8333 9.66667C15.8333 11.2072 15.3108 12.6258 14.4333 13.7547L17.2559 16.5774C17.5813 16.9028 17.5813 17.4305 17.2559 17.7559C16.9305 18.0813 16.4028 18.0813 16.0774 17.7559L13.2547 14.9333C12.1258 15.8108 10.7072 16.3333 9.16667 16.3333ZM9.16667 14.6667C11.9281 14.6667 14.1667 12.4281 14.1667 9.66667C14.1667 6.90524 11.9281 4.66667 9.16667 4.66667C6.40524 4.66667 4.16667 6.90524 4.16667 9.66667C4.16667 12.4281 6.40524 14.6667 9.16667 14.6667Z" fill="#2A2630"/>
</g>
<defs>
<clipPath id="clip0_469_26902">
<rect width="20" height="20" fill="#FEFEFE" transform="translate(0 0.5)"/>
</clipPath>
</defs>
</svg>
