<svg width="30" height="30" viewBox="0 0 30 30" fill="none" xmlns="http://www.w3.org/2000/svg">
<g id="Box">
<path id="Glyph" fill-rule="evenodd" clip-rule="evenodd" d="M17.615 10C17.545 9.80375 17.5 9.595 17.5 9.375C17.5 9.155 17.545 8.94625 17.615 8.75C17.8737 8.02375 18.5612 7.5 19.375 7.5C20.1887 7.5 20.8763 8.02375 21.135 8.75C21.205 8.94625 21.25 9.155 21.25 9.375C21.25 9.595 21.205 9.80375 21.135 10C20.8763 10.7262 20.1887 11.25 19.375 11.25C18.5612 11.25 17.8737 10.7262 17.615 10ZM22.4363 8.75C22.1462 7.325 20.8837 6.25 19.375 6.25C17.8663 6.25 16.6038 7.325 16.3137 8.75H3.75V10H16.3137C16.6038 11.425 17.8663 12.5 19.375 12.5C20.8837 12.5 22.1462 11.425 22.4363 10H26.25V8.75H22.4363ZM18.865 22.5011C18.795 22.3049 18.75 22.0961 18.75 21.8761C18.75 21.6561 18.795 21.4474 18.865 21.2511C19.1237 20.5249 19.8113 20.0011 20.625 20.0011C21.4387 20.0011 22.1263 20.5249 22.385 21.2511C22.455 21.4474 22.5 21.6561 22.5 21.8761C22.5 22.0961 22.455 22.3049 22.385 22.5011C22.1263 23.2274 21.4387 23.7511 20.625 23.7511C19.8113 23.7511 19.1237 23.2274 18.865 22.5011ZM23.6863 21.2511C23.3962 19.8261 22.1337 18.7511 20.625 18.7511C19.1163 18.7511 17.8538 19.8261 17.5637 21.2511H3.75V22.5011H17.5637C17.8538 23.9261 19.1163 25.0011 20.625 25.0011C22.1337 25.0011 23.3962 23.9261 23.6863 22.5011H26.25V21.2511H23.6863ZM7.615 16.25C7.545 16.0538 7.5 15.845 7.5 15.625C7.5 15.405 7.545 15.1962 7.615 15C7.87375 14.2738 8.56125 13.75 9.375 13.75C10.1888 13.75 10.8763 14.2738 11.135 15C11.205 15.1962 11.25 15.405 11.25 15.625C11.25 15.845 11.205 16.0538 11.135 16.25C10.8763 16.9762 10.1888 17.5 9.375 17.5C8.56125 17.5 7.87375 16.9762 7.615 16.25ZM12.4362 15C12.1462 13.575 10.8837 12.5 9.375 12.5C7.86625 12.5 6.60375 13.575 6.31375 15H3.75V16.25H6.31375C6.60375 17.675 7.86625 18.75 9.375 18.75C10.8837 18.75 12.1462 17.675 12.4362 16.25H26.25V15H12.4362Z" fill="#000624"/>
</g>
</svg>
