<svg width="24" height="24" viewBox="0 0 24 24" fill="none" xmlns="http://www.w3.org/2000/svg">
<g id="Messenger" clip-path="url(#clip0_2709_5144)">
<path id="Vector" d="M12 0C5.373 0 0 4.974 0 11.111C0.0147572 12.7965 0.423818 14.4551 1.19445 15.9542C1.96508 17.4533 3.07589 18.7511 4.438 19.744L4.469 19.765V24L8.557 21.758C9.588 22.053 10.772 22.222 11.996 22.222H12C18.627 22.222 24 17.247 24 11.112C24 4.977 18.627 0 12 0ZM13.191 14.963L10.136 11.7L4.173 14.96L10.732 8L13.863 11.259L19.752 8L13.191 14.963Z" fill="white"/>
</g>
<defs>
<clipPath id="clip0_2709_5144">
<rect width="24" height="24" fill="white"/>
</clipPath>
</defs>
</svg>
