<svg width="24" height="24" viewBox="0 0 24 24" fill="none" xmlns="http://www.w3.org/2000/svg">
<path fill-rule="evenodd" clip-rule="evenodd" d="M12 20.7695C7.33333 17.0195 5 13.457 5 10.082C5 6.04345 8.13401 2.76953 12 2.76953C15.866 2.76953 19 6.04345 19 10.082C19 13.457 16.6667 17.0195 12 20.7695ZM17.9231 10.082C17.9231 6.66475 15.2712 3.89451 12 3.89451C8.72876 3.89451 6.0769 6.66475 6.0769 10.082C6.0769 12.8848 8.01549 15.9868 12 19.3382C15.9845 15.9868 17.9231 12.8848 17.9231 10.082ZM11.9999 14.0195C9.91825 14.0195 8.23071 12.2566 8.23071 10.082C8.23071 7.90735 9.91825 6.14447 11.9999 6.14447C14.0816 6.14447 15.7692 7.90735 15.7692 10.082C15.7692 12.2566 14.0816 14.0195 11.9999 14.0195ZM12 12.8946C13.487 12.8946 14.6924 11.6354 14.6924 10.0821C14.6924 8.52878 13.487 7.26958 12 7.26958C10.5131 7.26958 9.30774 8.52878 9.30774 10.0821C9.30774 11.6354 10.5131 12.8946 12 12.8946Z" fill="black" fill-opacity="0.8"/>
</svg>
