<svg width="24" height="24" viewBox="0 0 24 24" fill="none" xmlns="http://www.w3.org/2000/svg">
<path fill-rule="evenodd" clip-rule="evenodd" d="M15.5289 16.329C16 15.879 16.6311 15.6 17.3333 15.6C18.8089 15.6 20 16.806 20 18.3C20 19.794 18.8089 21 17.3333 21C15.8578 21 14.6667 19.794 14.6667 18.3C14.6667 18.084 14.7022 17.877 14.7467 17.679L8.48 13.971C8 14.421 7.36889 14.7 6.66667 14.7C5.19111 14.7 4 13.494 4 12C4 10.506 5.19111 9.3 6.66667 9.3C7.36889 9.3 8 9.579 8.48 10.029L14.7467 6.33C14.7022 6.132 14.6667 5.916 14.6667 5.7C14.6667 4.206 15.8578 3 17.3333 3C18.8089 3 20 4.206 20 5.7C20 7.194 18.8089 8.4 17.3333 8.4C16.6311 8.4 15.9911 8.121 15.52 7.671L9.25333 11.37C9.29778 11.577 9.33333 11.784 9.33333 12C9.33333 12.216 9.29778 12.423 9.25333 12.63L15.5289 16.329ZM18.2241 5.70094C18.2241 5.20594 17.8241 4.80094 17.3352 4.80094C16.8463 4.80094 16.4463 5.20594 16.4463 5.70094C16.4463 6.19594 16.8463 6.60094 17.3352 6.60094C17.8241 6.60094 18.2241 6.19594 18.2241 5.70094ZM6.66721 12.9005C6.17832 12.9005 5.77832 12.4955 5.77832 12.0005C5.77832 11.5055 6.17832 11.1005 6.66721 11.1005C7.1561 11.1005 7.5561 11.5055 7.5561 12.0005C7.5561 12.4955 7.1561 12.9005 6.66721 12.9005ZM16.4463 18.2995C16.4463 18.7945 16.8463 19.1995 17.3352 19.1995C17.8241 19.1995 18.2241 18.7945 18.2241 18.2995C18.2241 17.8045 17.8241 17.3995 17.3352 17.3995C16.8463 17.3995 16.4463 17.8045 16.4463 18.2995Z" fill="#000624"/>
</svg>
