<svg width="24" height="24" viewBox="0 0 24 24" fill="none" xmlns="http://www.w3.org/2000/svg">
<g id="Box">
<path id="Glyph" fill-rule="evenodd" clip-rule="evenodd" d="M11.5 3C16.7467 3 21 7.25329 21 12.5C21 17.7467 16.7467 22 11.5 22C6.25329 22 2 17.7467 2 12.5C2 7.25329 6.25329 3 11.5 3ZM11.5 4C6.80558 4 3 7.80558 3 12.5C3 17.1944 6.80558 21 11.5 21C16.1944 21 20 17.1944 20 12.5C20 7.80558 16.1944 4 11.5 4ZM12 7V12.293L14.8536 15.1464C15.0488 15.3417 15.0488 15.6583 14.8536 15.8536C14.68 16.0271 14.4106 16.0464 14.2157 15.9114L14.1464 15.8536L11.1464 12.8536C11.0351 12.7422 10.9873 12.5915 11.0029 12.4463L11 12.4V7H12Z" fill="black" fill-opacity="0.8"/>
</g>
</svg>
