<svg width="24" height="24" viewBox="0 0 24 24" fill="none" xmlns="http://www.w3.org/2000/svg">
<g id="VK" clip-path="url(#clip0_2709_5146)">
<path id="Vector" d="M0 11.52C0 6.0894 0 3.37413 1.68707 1.68707C3.37413 0 6.0894 0 11.52 0H12.48C17.9106 0 20.6259 0 22.313 1.68707C24 3.37413 24 6.0894 24 11.52V12.48C24 17.9106 24 20.6259 22.313 22.313C20.6259 24 17.9106 24 12.48 24H11.52C6.0894 24 3.37413 24 1.68707 22.313C0 20.6259 0 17.9106 0 12.48V11.52Z" fill="white"/>
<path id="Vector_2" d="M12.7286 17.2802C7.15272 17.2802 3.97236 13.4964 3.83984 7.2002H6.6329C6.72464 11.8215 8.7837 13.7789 10.4147 14.1825V7.2002H13.0447V11.1858C14.6553 11.0142 16.3473 9.19803 16.9181 7.2002H19.5481C19.1098 9.66218 17.2749 11.4784 15.9702 12.2251C17.2749 12.8305 19.3647 14.4146 20.1598 17.2802H17.2647C16.6429 15.3631 15.0937 13.8798 13.0447 13.678V17.2802H12.7286Z" fill="black"/>
</g>
<defs>
<clipPath id="clip0_2709_5146">
<rect width="24" height="24" fill="white"/>
</clipPath>
</defs>
</svg>
